<?xml version="1.0" encoding="UTF-8"?>
<svg version="1.1" xmlns="http://www.w3.org/2000/svg" width="200" height="200">
<path d="M0 0 C66 0 132 0 200 0 C200 66 200 132 200 200 C134 200 68 200 0 200 C0 134 0 68 0 0 Z " fill="#010101" transform="translate(0,0)"/>
<path d="M0 0 C1.58669495 -0.00472824 1.58669495 -0.00472824 3.20544434 -0.009552 C4.93196228 -0.00651566 4.93196228 -0.00651566 6.69335938 -0.00341797 C8.45226501 -0.00485306 8.45226501 -0.00485306 10.2467041 -0.00631714 C12.73169 -0.00699917 15.21667766 -0.00514331 17.70166016 -0.00097656 C21.52054825 0.00437134 25.33931872 -0.00092083 29.15820312 -0.00732422 C31.56575547 -0.00666344 33.97330774 -0.00538229 36.38085938 -0.00341797 C38.10737732 -0.00645432 38.10737732 -0.00645432 39.86877441 -0.009552 C40.92657104 -0.00639984 41.98436768 -0.00324768 43.07421875 0 C44.47867249 0.00119339 44.47867249 0.00119339 45.91149902 0.00241089 C48.03710938 0.12939453 48.03710938 0.12939453 49.03710938 1.12939453 C49.13584754 3.12739025 49.16682737 5.12896611 49.16210938 7.12939453 C49.16597656 8.76908203 49.16597656 8.76908203 49.16992188 10.44189453 C49.03710938 13.12939453 49.03710938 13.12939453 48.03710938 14.12939453 C46.69695716 14.28521757 45.34952034 14.37983595 44.00195312 14.44580078 C43.19306641 14.48769531 42.38417969 14.52958984 41.55078125 14.57275391 C40.27557617 14.63172852 40.27557617 14.63172852 38.97460938 14.69189453 C37.69360352 14.75666992 37.69360352 14.75666992 36.38671875 14.82275391 C34.270389 14.92916155 32.15377125 15.02981184 30.03710938 15.12939453 C30.0649501 16.04543457 30.0649501 16.04543457 30.09335327 16.97998047 C31.65893089 72.60600387 31.65893089 72.60600387 16.66357422 90.15576172 C14.35791511 92.95356241 12.72987286 95.93147863 11.03710938 99.12939453 C10.54210937 98.13939453 10.54210937 98.13939453 10.03710938 97.12939453 C10.93377279 94.8862944 11.92857621 92.68185132 12.97460938 90.50439453 C13.54050781 89.31587891 14.10640625 88.12736328 14.68945312 86.90283203 C15.13417969 85.98759766 15.57890625 85.07236328 16.03710938 84.12939453 C14.55210938 83.63439453 14.55210938 83.63439453 13.03710938 83.12939453 C12.70710938 60.68939453 12.37710938 38.24939453 12.03710938 15.12939453 C6.09710938 14.79939453 0.15710937 14.46939453 -5.96289062 14.12939453 C-6.06054688 4.07080078 -6.06054688 4.07080078 -5.96289062 1.12939453 C-4.29572378 -0.53777231 -2.28982922 0.00194571 0 0 Z " fill="#FBFBF9" transform="translate(57.962890625,48.87060546875)"/>
<path d="M0 0 C0.33 0.66 0.66 1.32 1 2 C0.22870771 3.44444211 -0.54903331 4.88572069 -1.35447693 6.31140137 C-8.07730647 18.82839934 -7.01973444 32.61898374 -6.94421387 46.4487915 C-6.93291041 49.90220316 -6.96149769 53.35528637 -6.98632812 56.80859375 C-7.02687693 63.53933562 -7.02885255 70.26921632 -7 77 C-6.06615479 76.99476318 -5.13230957 76.98952637 -4.17016602 76.98413086 C-0.71687204 76.9671238 2.73637767 76.95456698 6.18969727 76.94506836 C7.68644918 76.94002879 9.18319616 76.93319713 10.67993164 76.92456055 C12.82699807 76.91247841 14.97399962 76.90676809 17.12109375 76.90234375 C19.06133423 76.89448853 19.06133423 76.89448853 21.04077148 76.88647461 C24 77 24 77 25 78 C25.0989294 80.16480797 25.129711 82.33293785 25.125 84.5 C25.12886719 86.27890625 25.12886719 86.27890625 25.1328125 88.09375 C25 91 25 91 24 92 C22.53194708 92.09822744 21.0592254 92.1279837 19.58789062 92.12939453 C18.65021851 92.13254669 17.71254639 92.13569885 16.74645996 92.13894653 C15.72669067 92.1369223 14.70692139 92.13489807 13.65625 92.1328125 C12.09710876 92.13424759 12.09710876 92.13424759 10.50646973 92.13571167 C8.30395446 92.13639363 6.10143721 92.13453827 3.89892578 92.13037109 C0.51460281 92.12502308 -2.86958744 92.13031559 -6.25390625 92.13671875 C-8.38802113 92.13605797 -10.52213592 92.13477681 -12.65625 92.1328125 C-13.67601929 92.13483673 -14.69578857 92.13686096 -15.74645996 92.13894653 C-17.15296814 92.13421829 -17.15296814 92.13421829 -18.58789062 92.12939453 C-19.41760376 92.12859894 -20.24731689 92.12780334 -21.10217285 92.12698364 C-23 92 -23 92 -24 91 C-24.13478324 89.51020154 -24.20165129 88.01417785 -24.24047852 86.51879883 C-24.26622452 85.56302444 -24.29197052 84.60725006 -24.3184967 83.62251282 C-24.40304332 79.19224022 -24.46872184 74.76214042 -24.51489258 70.33129883 C-24.54631976 68.00842739 -24.59384622 65.68571102 -24.65844727 63.36352539 C-25.0585374 48.77956099 -24.80048634 38.8958631 -16 27 C-14.71681335 24.84433048 -13.45847058 22.67366029 -12.2265625 20.48828125 C-11.02668512 18.42931239 -9.82617047 16.37071476 -8.625 14.3125 C-8.01011719 13.25611328 -7.39523438 12.19972656 -6.76171875 11.11132812 C-6.17261719 10.10134766 -5.58351563 9.09136719 -4.9765625 8.05078125 C-4.18886475 6.69980347 -4.18886475 6.69980347 -3.38525391 5.3215332 C-2.30799346 3.51616316 -1.16617073 1.7492561 0 0 Z " fill="#F6F6F5" transform="translate(123,59)"/>
<path d="M0 0 C0.33 0.66 0.66 1.32 1 2 C0.02454429 4.76133535 -1.01760779 7.3854703 -2.1875 10.0625 C-2.49236328 10.80822266 -2.79722656 11.55394531 -3.11132812 12.32226562 C-3.41876953 13.03189453 -3.72621094 13.74152344 -4.04296875 14.47265625 C-4.32164795 15.12500244 -4.60032715 15.77734863 -4.88745117 16.44946289 C-6 18 -6 18 -8.12231445 18.72045898 C-8.74195068 18.81270752 -9.36158691 18.90495605 -10 19 C-8.40376856 14.60616294 -6.21975667 10.71004193 -3.875 6.6875 C-3.50246094 6.04232422 -3.12992187 5.39714844 -2.74609375 4.73242188 C-1.83367787 3.15324055 -0.91724491 1.57638136 0 0 Z " fill="#C8C8C8" transform="translate(123,59)"/>
<path d="M0 0 C0.66 0 1.32 0 2 0 C1.67 1.98 1.34 3.96 1 6 C-0.32 6.33 -1.64 6.66 -3 7 C-1.125 2.25 -1.125 2.25 0 0 Z " fill="#DEDEDE" transform="translate(116,71)"/>
</svg>
